<?xml version="1.0" encoding="utf-8"?>
<!-- Generator: Adobe Illustrator 28.0.0, SVG Export Plug-In . SVG Version: 6.00 Build 0)  -->
<svg version="1.1" id="Layer_1" xmlns="http://www.w3.org/2000/svg" xmlns:xlink="http://www.w3.org/1999/xlink" x="0px" y="0px"
	 viewBox="0 0 39 40" style="enable-background:new 0 0 39 40;" xml:space="preserve">
<style type="text/css">
	.st0{fill:url(#SVGID_1_);}
	.st1{fill:url(#SVGID_00000150794453278897021160000016526906657450614946_);}
	.st2{fill:url(#SVGID_00000090285297238056043110000008630012062115026561_);}
</style>
<g>
	<linearGradient id="SVGID_1_" gradientUnits="userSpaceOnUse" x1="8.1214" y1="20.2076" x2="37.2857" y2="19.7316">
		<stop  offset="0" style="stop-color:#6D4DF2"/>
		<stop  offset="1" style="stop-color:#8C71FF"/>
	</linearGradient>
	<path class="st0" d="M37.4,20c0,0.2-0.1,0.4-0.2,0.6c-0.1,0.1-0.2,0.2-0.3,0.3c-1.2,1.2-2.5,2.5-3.7,3.7c0,0-0.1,0.1-0.1,0.1
		c-0.3,0.3-0.8,0.3-1.2,0c-0.3-0.2-0.5-0.5-0.8-0.8c-1.5-1.5-3-3-4.5-4.5c-0.2-0.2-0.5-0.3-0.8-0.3c-0.2,0-0.4,0.1-0.5,0.3
		c-0.5,0.5-1.1,1.1-1.6,1.6c-3.3,3.3-6.7,6.7-10,10c0,0-0.1,0.1-0.1,0.1c-0.4,0.3-0.8,0.3-1.2,0c-0.4-0.3-0.7-0.7-1-1
		c-1-1-2-2-3-2.9c-0.2-0.2-0.3-0.3-0.3-0.6c0-0.3,0.1-0.5,0.3-0.7c0.6-0.6,1.3-1.3,1.9-1.9c5-5,10-10,15-15c0.2-0.2,0.3-0.3,0.5-0.3
		c0.3-0.1,0.6,0.1,0.8,0.3c0.7,0.7,1.3,1.3,2,2c2.8,2.8,5.6,5.6,8.4,8.4c0.1,0.1,0.1,0.1,0.2,0.2C37.3,19.6,37.4,19.8,37.4,20z"/>
	
		<linearGradient id="SVGID_00000042733967739990623410000015196727806525407633_" gradientUnits="userSpaceOnUse" x1="1.6029" y1="13.7041" x2="24.4452" y2="13.3312">
		<stop  offset="0" style="stop-color:#6D4DF2"/>
		<stop  offset="1" style="stop-color:#8C71FF"/>
	</linearGradient>
	<path style="fill:url(#SVGID_00000042733967739990623410000015196727806525407633_);" d="M24.4,7.1c0,0.2-0.1,0.4-0.3,0.6
		c-0.6,0.6-1.2,1.2-1.8,1.8c-5,5-10,10-15,15c-0.1,0.1-0.2,0.2-0.2,0.2c-0.4,0.4-0.9,0.4-1.2,0c-0.5-0.5-0.9-0.9-1.4-1.4
		c-0.9-0.9-1.7-1.7-2.6-2.6c-0.2-0.2-0.3-0.4-0.3-0.7c0-0.3,0.1-0.5,0.3-0.6c0.7-0.7,1.4-1.4,2.2-2.2C9,12.3,13.9,7.4,18.8,2.5
		c0.1-0.1,0.3-0.2,0.4-0.3c0.3-0.1,0.6,0,0.9,0.2c0.3,0.3,0.6,0.6,1,1c1,1,2,2,3,3C24.3,6.6,24.4,6.8,24.4,7.1z"/>
	
		<linearGradient id="SVGID_00000111875004675415938760000015789042354850557569_" gradientUnits="userSpaceOnUse" x1="14.6176" y1="29.8754" x2="30.9106" y2="29.6094">
		<stop  offset="0" style="stop-color:#6D4DF2"/>
		<stop  offset="1" style="stop-color:#8C71FF"/>
	</linearGradient>
	<path style="fill:url(#SVGID_00000111875004675415938760000015789042354850557569_);" d="M19.5,37.9c-0.3,0-0.5-0.1-0.7-0.3
		c-1.2-1.2-2.4-2.4-3.6-3.6c-0.1-0.1-0.2-0.2-0.3-0.3c-0.5-0.4-0.4-1,0-1.4c1.4-1.4,2.8-2.8,4.1-4.1c2.1-2.1,4.2-4.2,6.2-6.2
		c0.1-0.1,0.3-0.3,0.5-0.3c0.3-0.1,0.6,0,0.8,0.2c0.4,0.4,0.8,0.8,1.2,1.2c0.9,0.9,1.8,1.8,2.7,2.7c0,0,0.1,0.1,0.1,0.1
		c0.3,0.3,0.3,0.8,0,1.2c-0.2,0.3-0.5,0.5-0.8,0.8c-3.2,3.2-6.5,6.5-9.7,9.7c0,0-0.1,0.1-0.1,0.1C19.9,37.8,19.8,37.9,19.5,37.9z"/>
</g>
</svg>
