<?xml version="1.0" encoding="utf-8"?>
<!-- Generator: Adobe Illustrator 28.0.0, SVG Export Plug-In . SVG Version: 6.00 Build 0)  -->
<svg version="1.1" id="Layer_1" xmlns="http://www.w3.org/2000/svg" xmlns:xlink="http://www.w3.org/1999/xlink" x="0px" y="0px"
	 viewBox="0 0 39 39" style="enable-background:new 0 0 39 39;" xml:space="preserve">
<style type="text/css">
	.st0{fill:url(#SVGID_1_);}
	.st1{fill:url(#SVGID_00000069393432857327000120000004578481605971996296_);}
	.st2{fill:url(#SVGID_00000077316713655840985770000000240523080776571777_);}
</style>
<linearGradient id="SVGID_1_" gradientUnits="userSpaceOnUse" x1="8.8568" y1="19.6942" x2="36.1361" y2="19.2489">
	<stop  offset="0" style="stop-color:#6D4DF2"/>
	<stop  offset="1" style="stop-color:#8C71FF"/>
</linearGradient>
<path class="st0" d="M36.2,19.5c0,0.2-0.1,0.4-0.2,0.5c-0.1,0.1-0.2,0.2-0.2,0.2c-1.2,1.2-2.3,2.3-3.5,3.5c0,0-0.1,0.1-0.1,0.1
	c-0.3,0.3-0.8,0.3-1.1,0c-0.2-0.2-0.5-0.5-0.7-0.7c-1.4-1.4-2.8-2.8-4.2-4.2c-0.2-0.2-0.5-0.3-0.8-0.3c-0.2,0-0.3,0.1-0.5,0.3
	c-0.5,0.5-1,1-1.5,1.5c-3.1,3.1-6.2,6.2-9.4,9.4c0,0-0.1,0.1-0.1,0.1c-0.3,0.3-0.8,0.3-1.1,0c-0.3-0.3-0.7-0.7-1-1
	c-0.9-0.9-1.8-1.8-2.8-2.8C9,26,8.9,25.9,8.8,25.7c0-0.3,0.1-0.5,0.3-0.7c0.6-0.6,1.2-1.2,1.8-1.8c4.7-4.7,9.4-9.4,14-14
	c0.1-0.1,0.3-0.3,0.5-0.3c0.3,0,0.5,0,0.8,0.3c0.6,0.6,1.2,1.2,1.8,1.8c2.6,2.6,5.2,5.2,7.8,7.8c0.1,0.1,0.1,0.1,0.2,0.2
	C36.2,19.1,36.2,19.3,36.2,19.5z"/>
<linearGradient id="SVGID_00000061432195470545608460000005727628137715036854_" gradientUnits="userSpaceOnUse" x1="2.7597" y1="13.611" x2="24.1256" y2="13.2623">
	<stop  offset="0" style="stop-color:#6D4DF2"/>
	<stop  offset="1" style="stop-color:#8C71FF"/>
</linearGradient>
<path style="fill:url(#SVGID_00000061432195470545608460000005727628137715036854_);" d="M24.1,7.4c0,0.2-0.1,0.4-0.3,0.6
	c-0.6,0.5-1.1,1.1-1.7,1.7c-4.7,4.7-9.3,9.3-14,14c-0.1,0.1-0.2,0.2-0.2,0.2c-0.3,0.3-0.8,0.3-1.1,0c-0.4-0.4-0.9-0.9-1.3-1.3
	c-0.8-0.8-1.6-1.6-2.4-2.4c-0.2-0.2-0.3-0.4-0.3-0.6c0-0.2,0.1-0.4,0.3-0.6c0.7-0.7,1.3-1.3,2-2c4.6-4.6,9.2-9.2,13.8-13.8
	C19,3,19.1,2.9,19.3,2.8c0.3-0.1,0.6,0,0.8,0.2c0.3,0.3,0.6,0.6,0.9,0.9c0.9,0.9,1.9,1.9,2.8,2.8C24,6.9,24.1,7.1,24.1,7.4z"/>
<linearGradient id="SVGID_00000172431586248805163070000016166767268062712707_" gradientUnits="userSpaceOnUse" x1="14.9331" y1="28.7371" x2="30.1731" y2="28.4883">
	<stop  offset="0" style="stop-color:#6D4DF2"/>
	<stop  offset="1" style="stop-color:#8C71FF"/>
</linearGradient>
<path style="fill:url(#SVGID_00000172431586248805163070000016166767268062712707_);" d="M19.5,36.2c-0.3,0-0.4-0.1-0.6-0.3
	c-1.1-1.1-2.3-2.3-3.4-3.4c-0.1-0.1-0.2-0.2-0.3-0.3c-0.5-0.4-0.4-0.9,0-1.3c1.3-1.3,2.6-2.6,3.9-3.9c1.9-1.9,3.9-3.9,5.8-5.8
	c0.1-0.1,0.3-0.2,0.4-0.3c0.3-0.1,0.6,0,0.8,0.2c0.4,0.4,0.8,0.8,1.1,1.1c0.9,0.9,1.7,1.7,2.6,2.6c0,0,0.1,0.1,0.1,0.1
	c0.3,0.3,0.3,0.8,0,1.1c-0.2,0.2-0.5,0.5-0.7,0.7c-3,3-6.1,6.1-9.1,9.1c0,0-0.1,0.1-0.1,0.1C19.9,36.2,19.7,36.3,19.5,36.2z"/>
</svg>
