<?xml version="1.0" encoding="utf-8"?>
<!-- Generator: Adobe Illustrator 28.0.0, SVG Export Plug-In . SVG Version: 6.00 Build 0)  -->
<svg version="1.1" id="Layer_1" xmlns="http://www.w3.org/2000/svg" xmlns:xlink="http://www.w3.org/1999/xlink" x="0px" y="0px"
	 viewBox="0 0 16.9 16.9" style="enable-background:new 0 0 16.9 16.9;" xml:space="preserve">
<style type="text/css">
	.st0{fill:url(#SVGID_1_);}
	.st1{fill:url(#SVGID_00000176740284722724314520000017224508897276432520_);}
	.st2{fill:url(#SVGID_00000090296061878259282740000008891889366128955816_);}
</style>
<g>
	<linearGradient id="SVGID_1_" gradientUnits="userSpaceOnUse" x1="3.3627" y1="8.5428" x2="16.4019" y2="8.33">
		<stop  offset="0" style="stop-color:#6D4DF2"/>
		<stop  offset="1" style="stop-color:#8C71FF"/>
	</linearGradient>
	<path class="st0" d="M16.4,8.5c0,0.1,0,0.2-0.1,0.3c0,0-0.1,0.1-0.1,0.1c-0.6,0.6-1.1,1.1-1.7,1.7c0,0,0,0-0.1,0.1
		c-0.2,0.1-0.4,0.1-0.5,0c-0.1-0.1-0.2-0.2-0.3-0.3c-0.7-0.7-1.3-1.3-2-2c-0.1-0.1-0.2-0.2-0.4-0.1c-0.1,0-0.2,0.1-0.2,0.1
		c-0.2,0.2-0.5,0.5-0.7,0.7c-1.5,1.5-3,3-4.5,4.5c0,0,0,0,0,0c-0.2,0.2-0.4,0.2-0.5,0C5.1,13.3,5,13.1,4.8,13
		c-0.4-0.4-0.9-0.9-1.3-1.3c-0.1-0.1-0.1-0.2-0.1-0.3c0-0.1,0-0.2,0.1-0.3c0.3-0.3,0.6-0.6,0.8-0.8C6.6,8,8.8,5.8,11,3.5
		c0.1-0.1,0.1-0.1,0.2-0.2c0.1,0,0.3,0,0.4,0.1c0.3,0.3,0.6,0.6,0.9,0.9c1.3,1.3,2.5,2.5,3.8,3.8c0,0,0.1,0.1,0.1,0.1
		C16.4,8.3,16.5,8.4,16.4,8.5z"/>
	
		<linearGradient id="SVGID_00000055675263125235601890000001735577111758255282_" gradientUnits="userSpaceOnUse" x1="0.4483" y1="5.6351" x2="10.661" y2="5.4684">
		<stop  offset="0" style="stop-color:#6D4DF2"/>
		<stop  offset="1" style="stop-color:#8C71FF"/>
	</linearGradient>
	<path style="fill:url(#SVGID_00000055675263125235601890000001735577111758255282_);" d="M10.7,2.7c0,0.1-0.1,0.2-0.1,0.3
		C10.3,3.2,10,3.5,9.7,3.7C7.5,6,5.3,8.2,3,10.4c0,0-0.1,0.1-0.1,0.1c-0.2,0.2-0.4,0.2-0.5,0C2.2,10.3,2,10.1,1.7,9.9
		C1.4,9.5,1,9.1,0.6,8.7C0.5,8.7,0.5,8.6,0.5,8.5c0-0.1,0-0.2,0.1-0.3c0.3-0.3,0.6-0.6,1-1C3.7,5,5.9,2.8,8.1,0.6
		c0.1-0.1,0.1-0.1,0.2-0.1c0.1-0.1,0.3,0,0.4,0.1C8.9,0.7,9,0.9,9.2,1c0.5,0.5,0.9,0.9,1.4,1.4C10.6,2.4,10.7,2.5,10.7,2.7z"/>
	
		<linearGradient id="SVGID_00000081618871238383577260000013078188939143420605_" gradientUnits="userSpaceOnUse" x1="6.2671" y1="12.8652" x2="13.5517" y2="12.7463">
		<stop  offset="0" style="stop-color:#6D4DF2"/>
		<stop  offset="1" style="stop-color:#8C71FF"/>
	</linearGradient>
	<path style="fill:url(#SVGID_00000081618871238383577260000013078188939143420605_);" d="M8.5,16.4c-0.1,0-0.2,0-0.3-0.1
		c-0.5-0.5-1.1-1.1-1.6-1.6c0,0-0.1-0.1-0.1-0.1c-0.2-0.2-0.2-0.4,0-0.6c0.6-0.6,1.2-1.2,1.9-1.9c0.9-0.9,1.9-1.9,2.8-2.8
		c0.1-0.1,0.1-0.1,0.2-0.1c0.1,0,0.3,0,0.4,0.1c0.2,0.2,0.4,0.4,0.5,0.5c0.4,0.4,0.8,0.8,1.2,1.2c0,0,0,0,0.1,0.1
		c0.1,0.2,0.1,0.4,0,0.5c-0.1,0.1-0.2,0.2-0.3,0.3c-1.4,1.4-2.9,2.9-4.3,4.3c0,0,0,0,0,0C8.7,16.4,8.6,16.5,8.5,16.4z"/>
</g>
</svg>
