<?xml version="1.0" encoding="UTF-8"?>
<svg id="Layer_2" data-name="Layer 2" xmlns="http://www.w3.org/2000/svg" viewBox="0 0 233.04 220.11">
  <defs>
    <style>
      .cls-1 {
        fill: #fff;
        stroke-width: 0px;
      }
    </style>
  </defs>
  <g id="Layer_1-2" data-name="Layer 1">
    <g>
      <path class="cls-1" d="m66.65,185.26c-10.11-10.11-19.95-19.94-29.85-29.85.21-.23.45-.53.72-.8,35.89-35.89,71.78-71.78,107.65-107.68.59-.59,1.18-.81,2-.81,5.64.03,11.28,0,16.92.05.6,0,1.35.27,1.76.69,22.28,22.23,44.54,44.49,66.8,66.75.17.17.33.35.39.41-9.88,9.87-19.73,19.72-29.64,29.62-15.75-15.76-31.69-31.7-47.55-47.58-29.81,29.82-59.49,59.5-89.19,89.2Z"/>
      <path class="cls-1" d="m118.77,0c9.77,9.78,19.65,19.66,29.73,29.73-.38.3-.89.64-1.31,1.06-34.45,34.43-68.89,68.87-103.31,103.33-.71.71-1.41.99-2.41.99-8.04-.04-16.08-.01-24.11-.04-.54,0-1.23-.17-1.59-.53-5.24-5.17-10.43-10.38-15.63-15.59-.08-.08-.14-.19-.13-.19C39.63,79.14,79.23,39.54,118.77,0Z"/>
      <path class="cls-1" d="m103.31,162.72c3.66,3.67,7.41,7.42,11.13,11.15,17.47-17.48,34.87-34.89,52.2-52.22,10.08,10.09,19.94,19.94,29.96,29.97-.61.55-1.4,1.21-2.13,1.94-21.89,21.88-43.78,43.77-65.66,65.68-.61.61-1.21.87-2.08.87-8.16-.03-16.32,0-24.48-.05-.53,0-1.19-.23-1.56-.6-8.91-8.85-17.78-17.74-26.66-26.62-.17-.17-.31-.35-.4-.44,9.89-9.89,19.74-19.74,29.68-29.68Z"/>
    </g>
  </g>
</svg>